# xmcd
# 
# Track frame offsets:
#     150
#     21967
#     42800
#     64795
#     86797
#     113805
#     136040
#     160772
#     182265
#     202142
# 
# Disc length: 3019
# 
# Revision: 2
# Processed by: cddbd v1.5.2PL0 Copyright (c) Steve Scherf et al.
# Submitted via: fre:ac v1.0.17
# 
DISCID=7e0bc90a
DTITLE=山口由子 - しあわせのみつけかた
DYEAR=1994
DGENRE=JPop
TTITLE0=「一緒に暮らそう」
TTITLE1=グラスが飛んだ日
TTITLE2=わたしを「ヨロシク」
TTITLE3=そして毎日あなたを思った
TTITLE4=小包
TTITLE5=Rain Rain Rain
TTITLE6=めぐり逢う朝
TTITLE7=青春の宝物
TTITLE8=恋する女達
TTITLE9=夏の終わり
EXTD=YEAR: 1994.09.21
EXTT0=
EXTT1=
EXTT2=
EXTT3=
EXTT4=
EXTT5=
EXTT6=
EXTT7=
EXTT8=
EXTT9=
PLAYORDER=
